<svg width="589" height="117" viewBox="0 0 589 117" fill="none" xmlns="http://www.w3.org/2000/svg">
<path d="M386.736 25.8V93H379.92V39.24L353.52 84.456H350.16L323.76 39.528V93H316.944V25.8H322.8L351.984 75.624L380.88 25.8H386.736ZM578.897 21.768V93H572.369V83.016C570.321 86.408 567.601 89 564.209 90.792C560.881 92.584 557.105 93.48 552.881 93.48C548.145 93.48 543.857 92.392 540.017 90.216C536.177 88.04 533.169 85 530.993 81.096C528.817 77.192 527.729 72.744 527.729 67.752C527.729 62.76 528.817 58.312 530.993 54.408C533.169 50.504 536.177 47.496 540.017 45.384C543.857 43.208 548.145 42.12 552.881 42.12C556.977 42.12 560.657 42.984 563.921 44.712C567.249 46.376 569.969 48.84 572.081 52.104V21.768H578.897ZM553.457 87.432C556.977 87.432 560.145 86.632 562.961 85.032C565.841 83.368 568.081 81.032 569.681 78.024C571.345 75.016 572.177 71.592 572.177 67.752C572.177 63.912 571.345 60.488 569.681 57.48C568.081 54.472 565.841 52.168 562.961 50.568C560.145 48.904 556.977 48.072 553.457 48.072C549.873 48.072 546.641 48.904 543.761 50.568C540.945 52.168 538.705 54.472 537.041 57.48C535.441 60.488 534.641 63.912 534.641 67.752C534.641 71.592 535.441 75.016 537.041 78.024C538.705 81.032 540.945 83.368 543.761 85.032C546.641 86.632 549.873 87.432 553.457 87.432Z" fill="white"/>
<path d="M445.238 48.7617C440.233 43.7565 433.578 41 426.5 41C419.422 41 412.767 43.7565 407.762 48.7617C402.756 53.7668 400 60.4216 400 67.5C400 74.5784 402.756 81.2332 407.762 86.2383C412.767 91.2435 419.422 94 426.5 94C433.578 94 440.233 91.2435 445.238 86.2383C450.244 81.2332 453 74.5784 453 67.5C453 60.4216 450.244 53.7668 445.238 48.7617ZM426.5 90.8453C413.627 90.8453 403.155 80.3726 403.155 67.5C403.155 54.6274 413.627 44.1547 426.5 44.1547C439.373 44.1547 449.845 54.6274 449.845 67.5C449.845 80.3726 439.373 90.8453 426.5 90.8453Z" fill="white"/>
<path d="M420.768 60.5021C418.185 57.9188 413.982 57.9191 411.399 60.5021C410.782 61.118 410.782 62.1168 411.399 62.7328C412.015 63.3488 413.013 63.3488 413.629 62.7328C414.983 61.3798 417.184 61.3799 418.537 62.7328C418.845 63.0409 419.249 63.1949 419.652 63.1949C420.056 63.1949 420.46 63.0409 420.768 62.7328C421.384 62.1168 421.384 61.1181 420.768 60.5021Z" fill="white"/>
<path d="M441.601 60.5021C439.018 57.9191 434.815 57.9188 432.232 60.5021C431.616 61.118 431.616 62.1168 432.232 62.7328C432.848 63.3488 433.847 63.3488 434.463 62.7328C435.816 61.3798 438.018 61.3797 439.371 62.7328C439.679 63.0409 440.082 63.1949 440.486 63.1949C440.89 63.1949 441.293 63.0409 441.601 62.7328C442.217 62.1168 442.217 61.1181 441.601 60.5021Z" fill="white"/>
<path d="M440.486 68.6567H412.514C411.643 68.6567 410.937 69.363 410.937 70.2341C410.937 78.8158 417.919 85.7976 426.5 85.7976C435.082 85.7976 442.064 78.8158 442.064 70.2341C442.064 69.3629 441.358 68.6567 440.486 68.6567ZM426.5 82.6428C420.192 82.6428 414.969 77.9119 414.191 71.8115H438.809C438.032 77.9119 432.808 82.6428 426.5 82.6428Z" fill="white"/>
<path fill-rule="evenodd" clip-rule="evenodd" d="M411.398 62.7327C410.782 62.1167 410.782 61.1179 411.398 60.502C413.981 57.919 418.184 57.9187 420.768 60.502C421.384 61.118 421.384 62.1167 420.768 62.7327C420.46 63.0408 420.056 63.1948 419.652 63.1948C419.249 63.1948 418.845 63.0408 418.537 62.7327C417.184 61.3798 414.982 61.3797 413.629 62.7327C413.013 63.3487 412.015 63.3487 411.398 62.7327ZM414.054 63.157C413.203 64.0073 411.825 64.0072 410.974 63.1571C410.124 62.3068 410.124 60.928 410.974 60.0777C413.791 57.2604 418.374 57.2601 421.192 60.0777C422.042 60.9281 422.042 62.3067 421.192 63.157C420.767 63.5822 420.208 63.7948 419.652 63.7948C419.096 63.7948 418.538 63.582 418.113 63.157C416.994 62.0384 415.172 62.0383 414.054 63.157ZM431.808 63.157C430.958 62.3067 430.957 60.928 431.808 60.0777C431.808 60.0777 431.808 60.0778 431.808 60.0777M431.808 60.0777C434.625 57.2602 439.208 57.2604 442.025 60.0777C442.876 60.928 442.876 62.3065 442.026 63.1569C441.601 63.5821 441.042 63.7948 440.486 63.7948C439.93 63.7948 439.371 63.582 438.946 63.157C437.828 62.0382 436.006 62.0383 434.887 63.157L434.463 62.7327C435.816 61.3797 438.017 61.3796 439.371 62.7327C439.679 63.0408 440.082 63.1948 440.486 63.1948C440.889 63.1948 441.293 63.0408 441.601 62.7327C442.217 62.1167 442.217 61.118 441.601 60.502C439.018 57.919 434.815 57.9187 432.232 60.502C431.616 61.1179 431.616 62.1167 432.232 62.7327C432.848 63.3487 433.847 63.3487 434.463 62.7327L434.887 63.157C434.037 64.0073 432.658 64.0071 431.808 63.157M426.5 40.3999C433.737 40.3999 440.545 43.2196 445.662 48.3373C450.78 53.4549 453.6 60.2624 453.6 67.4999C453.6 74.7374 450.78 81.5449 445.662 86.6625C440.545 91.7802 433.737 94.5999 426.5 94.5999C419.262 94.5999 412.455 91.7802 407.337 86.6625C402.22 81.5449 399.4 74.7374 399.4 67.4999C399.4 60.2624 402.22 53.4549 407.337 48.3373C412.455 43.2196 419.262 40.3999 426.5 40.3999ZM445.238 48.7616C440.233 43.7564 433.578 40.9999 426.5 40.9999C419.422 40.9999 412.767 43.7564 407.762 48.7616C402.756 53.7667 400 60.4215 400 67.4999C400 74.5783 402.756 81.2331 407.762 86.2382C412.767 91.2434 419.422 93.9999 426.5 93.9999C433.578 93.9999 440.233 91.2434 445.238 86.2382C450.243 81.2331 453 74.5783 453 67.4999C453 60.4215 450.243 53.7667 445.238 48.7616ZM403.755 67.4999C403.755 80.0411 413.959 90.2452 426.5 90.2452C439.041 90.2452 449.245 80.0411 449.245 67.4999C449.245 54.9587 439.041 44.7546 426.5 44.7546C413.959 44.7546 403.755 54.9587 403.755 67.4999ZM412.514 68.0566H440.486C441.689 68.0566 442.664 69.0315 442.664 70.234C442.664 79.147 435.413 86.3975 426.5 86.3975C417.587 86.3975 410.337 79.147 410.337 70.234C410.337 69.0316 411.312 68.0566 412.514 68.0566ZM414.893 72.4114C415.917 77.8862 420.733 82.0427 426.5 82.0427C432.267 82.0427 437.083 77.8862 438.108 72.4114H414.893ZM414.283 72.4114C415.315 78.2192 420.401 82.6427 426.5 82.6427C432.6 82.6427 437.686 78.2192 438.718 72.4114C438.753 72.213 438.784 72.0129 438.809 71.8114H414.191C414.217 72.0129 414.248 72.213 414.283 72.4114ZM403.155 67.4999C403.155 80.3725 413.627 90.8452 426.5 90.8452C439.372 90.8452 449.845 80.3725 449.845 67.4999C449.845 54.6273 439.372 44.1546 426.5 44.1546C413.627 44.1546 403.155 54.6273 403.155 67.4999ZM412.514 68.6566H440.486C441.358 68.6566 442.064 69.3628 442.064 70.234C442.064 78.8157 435.082 85.7975 426.5 85.7975C417.919 85.7975 410.937 78.8157 410.937 70.234C410.937 69.3629 411.643 68.6566 412.514 68.6566Z" fill="white"/>
<path d="M482.244 60.2313C482.244 58.7574 481.049 57.5625 479.575 57.5625C478.101 57.5625 476.906 58.7574 476.906 60.2313C476.906 61.7052 478.101 62.9 479.575 62.9C481.049 62.9 482.244 61.7052 482.244 60.2313Z" fill="white"/>
<path d="M498.256 62.9C496.782 62.9 495.588 61.7052 495.588 60.2313C495.588 58.7574 496.782 57.5625 498.256 57.5625C499.73 57.5625 500.925 58.7574 500.925 60.2313C500.925 61.7052 499.73 62.9 498.256 62.9Z" fill="white"/>
<path d="M507.238 48.7617C502.233 43.7565 495.578 41 488.5 41C481.422 41 474.767 43.7565 469.762 48.7617C464.756 53.7668 462 60.4216 462 67.5C462 74.5784 464.756 81.2332 469.762 86.2383C474.767 91.2435 481.422 94 488.5 94C495.578 94 502.233 91.2435 507.238 86.2383C512.244 81.2332 515 74.5784 515 67.5C515 60.4216 512.244 53.7668 507.238 48.7617ZM488.5 90.8453C475.627 90.8453 465.155 80.3726 465.155 67.5C465.155 54.6274 475.627 44.1547 488.5 44.1547C501.373 44.1547 511.845 54.6274 511.845 67.5C511.845 80.3726 501.373 90.8453 488.5 90.8453Z" fill="white"/>
<path fill-rule="evenodd" clip-rule="evenodd" d="M488.5 74.2909C486.08 74.2909 483.532 75.5735 481.764 78.4033C481.23 79.2566 480.106 79.516 479.253 78.9827C478.4 78.4494 478.141 77.3254 478.674 76.4721C481.046 72.677 484.71 70.6471 488.5 70.6471C492.29 70.6471 495.954 72.6769 498.326 76.4719C498.86 77.3251 498.6 78.4492 497.747 78.9824C496.894 79.5157 495.77 79.2564 495.236 78.4031C493.468 75.5734 490.921 74.2908 488.5 74.2909Z" fill="white"/>
<path fill-rule="evenodd" clip-rule="evenodd" d="M479.575 56.9624C481.38 56.9624 482.844 58.4259 482.844 60.2312C482.844 62.0364 481.38 63.4999 479.575 63.4999C477.77 63.4999 476.306 62.0364 476.306 60.2312C476.306 58.4259 477.77 56.9624 479.575 56.9624ZM498.256 63.4999C496.451 63.4999 494.987 62.0364 494.987 60.2312C494.987 58.4259 496.451 56.9624 498.256 56.9624C500.062 56.9624 501.525 58.4259 501.525 60.2312C501.525 62.0364 500.062 63.4999 498.256 63.4999ZM488.5 40.3999C495.737 40.3999 502.545 43.2196 507.662 48.3373C512.78 53.4549 515.6 60.2624 515.6 67.4999C515.6 74.7374 512.78 81.5449 507.662 86.6625C502.545 91.7802 495.737 94.5999 488.5 94.5999C481.262 94.5999 474.455 91.7802 469.337 86.6625C464.22 81.5449 461.4 74.7374 461.4 67.4999C461.4 60.2624 464.22 53.4549 469.337 48.3373C474.455 43.2196 481.262 40.3999 488.5 40.3999ZM507.238 48.7616C502.233 43.7564 495.578 40.9999 488.5 40.9999C481.422 40.9999 474.767 43.7564 469.762 48.7616C464.756 53.7667 462 60.4215 462 67.4999C462 74.5783 464.756 81.2331 469.762 86.2382C474.767 91.2434 481.422 93.9999 488.5 93.9999C495.578 93.9999 502.233 91.2434 507.238 86.2382C512.243 81.2331 515 74.5783 515 67.4999C515 60.4215 512.243 53.7667 507.238 48.7616ZM465.755 67.4999C465.755 80.0411 475.959 90.2452 488.5 90.2452C501.041 90.2452 511.245 80.0411 511.245 67.4999C511.245 54.9587 501.041 44.7546 488.5 44.7546C475.959 44.7546 465.755 54.9587 465.755 67.4999ZM488.5 74.8908C486.305 74.8908 483.942 76.0508 482.272 78.7212C481.564 79.8555 480.069 80.2003 478.935 79.4914C477.801 78.7825 477.456 77.2883 478.165 76.154C480.636 72.2002 484.484 70.047 488.5 70.047C492.516 70.047 496.364 72.2001 498.835 76.1538C499.544 77.288 499.199 78.7822 498.065 79.4911C496.931 80.2001 495.436 79.8553 494.727 78.721C493.058 76.0507 490.695 74.8907 488.5 74.8908ZM488.5 90.8452C475.627 90.8452 465.155 80.3725 465.155 67.4999C465.155 54.6273 475.627 44.1546 488.5 44.1546C501.372 44.1546 511.845 54.6273 511.845 67.4999C511.845 80.3725 501.372 90.8452 488.5 90.8452ZM479.575 57.5624C481.049 57.5624 482.244 58.7573 482.244 60.2312C482.244 61.7051 481.049 62.8999 479.575 62.8999C478.101 62.8999 476.906 61.7051 476.906 60.2312C476.906 58.7573 478.101 57.5624 479.575 57.5624ZM495.587 60.2312C495.587 61.7051 496.782 62.8999 498.256 62.8999C499.73 62.8999 500.925 61.7051 500.925 60.2312C500.925 58.7573 499.73 57.5624 498.256 57.5624C496.782 57.5624 495.587 58.7573 495.587 60.2312ZM481.764 78.4032C483.532 75.5734 486.079 74.2908 488.5 74.2908C490.921 74.2907 493.468 75.5733 495.236 78.403C495.77 79.2563 496.894 79.5156 497.747 78.9823C498.6 78.4491 498.859 77.325 498.326 76.4718C495.954 72.6768 492.29 70.647 488.5 70.647C484.71 70.647 481.046 72.6769 478.674 76.472C478.14 77.3253 478.4 78.4493 479.253 78.9826C480.106 79.5159 481.23 79.2565 481.764 78.4032Z" fill="white"/>
<path d="M7.968 25.8H23.52V93H7.968V25.8ZM69.804 40.584C76.204 40.584 81.356 42.504 85.26 46.344C89.228 50.184 91.212 55.88 91.212 63.432V93H76.236V65.736C76.236 61.64 75.34 58.6 73.548 56.616C71.756 54.568 69.164 53.544 65.772 53.544C61.996 53.544 58.988 54.728 56.748 57.096C54.508 59.4 53.388 62.856 53.388 67.464V93H38.412V41.352H52.716V47.4C54.7 45.224 57.164 43.56 60.108 42.408C63.052 41.192 66.284 40.584 69.804 40.584ZM122.163 93.768C117.875 93.768 113.683 93.256 109.587 92.232C105.491 91.144 102.227 89.8 99.795 88.2L104.787 77.448C107.091 78.92 109.875 80.136 113.139 81.096C116.403 81.992 119.603 82.44 122.739 82.44C129.075 82.44 132.243 80.872 132.243 77.736C132.243 76.264 131.379 75.208 129.651 74.568C127.923 73.928 125.267 73.384 121.683 72.936C117.459 72.296 113.971 71.56 111.219 70.728C108.467 69.896 106.067 68.424 104.019 66.312C102.035 64.2 101.043 61.192 101.043 57.288C101.043 54.024 101.971 51.144 103.827 48.648C105.747 46.088 108.499 44.104 112.083 42.696C115.731 41.288 120.019 40.584 124.947 40.584C128.595 40.584 132.211 41 135.795 41.832C139.443 42.6 142.451 43.688 144.819 45.096L139.827 55.752C135.283 53.192 130.323 51.912 124.947 51.912C121.747 51.912 119.347 52.36 117.747 53.256C116.147 54.152 115.347 55.304 115.347 56.712C115.347 58.312 116.211 59.432 117.939 60.072C119.667 60.712 122.419 61.32 126.195 61.896C130.419 62.6 133.875 63.368 136.563 64.2C139.251 64.968 141.587 66.408 143.571 68.52C145.555 70.632 146.547 73.576 146.547 77.352C146.547 80.552 145.587 83.4 143.667 85.896C141.747 88.392 138.931 90.344 135.219 91.752C131.571 93.096 127.219 93.768 122.163 93.768ZM155.787 41.352H170.763V93H155.787V41.352ZM163.275 34.152C160.523 34.152 158.283 33.352 156.555 31.752C154.827 30.152 153.963 28.168 153.963 25.8C153.963 23.432 154.827 21.448 156.555 19.848C158.283 18.248 160.523 17.448 163.275 17.448C166.027 17.448 168.267 18.216 169.995 19.752C171.723 21.288 172.587 23.208 172.587 25.512C172.587 28.008 171.723 30.088 169.995 31.752C168.267 33.352 166.027 34.152 163.275 34.152ZM237.27 21.768V93H222.966V87.048C219.254 91.528 213.878 93.768 206.838 93.768C201.974 93.768 197.558 92.68 193.59 90.504C189.686 88.328 186.614 85.224 184.374 81.192C182.134 77.16 181.014 72.488 181.014 67.176C181.014 61.864 182.134 57.192 184.374 53.16C186.614 49.128 189.686 46.024 193.59 43.848C197.558 41.672 201.974 40.584 206.838 40.584C213.43 40.584 218.582 42.664 222.294 46.824V21.768H237.27ZM209.43 81.48C213.206 81.48 216.342 80.2 218.838 77.64C221.334 75.016 222.582 71.528 222.582 67.176C222.582 62.824 221.334 59.368 218.838 56.808C216.342 54.184 213.206 52.872 209.43 52.872C205.59 52.872 202.422 54.184 199.926 56.808C197.43 59.368 196.182 62.824 196.182 67.176C196.182 71.528 197.43 75.016 199.926 77.64C202.422 80.2 205.59 81.48 209.43 81.48ZM301.723 67.368C301.723 67.56 301.627 68.904 301.435 71.4H262.363C263.067 74.6 264.731 77.128 267.355 78.984C269.979 80.84 273.243 81.768 277.147 81.768C279.835 81.768 282.203 81.384 284.251 80.616C286.363 79.784 288.315 78.504 290.107 76.776L298.075 85.416C293.211 90.984 286.107 93.768 276.763 93.768C270.939 93.768 265.787 92.648 261.307 90.408C256.827 88.104 253.371 84.936 250.939 80.904C248.507 76.872 247.291 72.296 247.291 67.176C247.291 62.12 248.475 57.576 250.843 53.544C253.275 49.448 256.571 46.28 260.731 44.04C264.955 41.736 269.659 40.584 274.843 40.584C279.899 40.584 284.475 41.672 288.571 43.848C292.667 46.024 295.867 49.16 298.171 53.256C300.539 57.288 301.723 61.992 301.723 67.368ZM274.939 51.912C271.547 51.912 268.699 52.872 266.395 54.792C264.091 56.712 262.683 59.336 262.171 62.664H287.611C287.099 59.4 285.691 56.808 283.387 54.888C281.083 52.904 278.267 51.912 274.939 51.912Z" fill="white"/>
</svg>
