<svg width="589" height="117" viewBox="0 0 589 117" fill="none" xmlns="http://www.w3.org/2000/svg">
<path d="M386.736 25.8V93H379.92V39.24L353.52 84.456H350.16L323.76 39.528V93H316.944V25.8H322.8L351.984 75.624L380.88 25.8H386.736ZM578.897 21.768V93H572.369V83.016C570.321 86.408 567.601 89 564.209 90.792C560.881 92.584 557.105 93.48 552.881 93.48C548.145 93.48 543.857 92.392 540.017 90.216C536.177 88.04 533.169 85 530.993 81.096C528.817 77.192 527.729 72.744 527.729 67.752C527.729 62.76 528.817 58.312 530.993 54.408C533.169 50.504 536.177 47.496 540.017 45.384C543.857 43.208 548.145 42.12 552.881 42.12C556.977 42.12 560.657 42.984 563.921 44.712C567.249 46.376 569.969 48.84 572.081 52.104V21.768H578.897ZM553.457 87.432C556.977 87.432 560.145 86.632 562.961 85.032C565.841 83.368 568.081 81.032 569.681 78.024C571.345 75.016 572.177 71.592 572.177 67.752C572.177 63.912 571.345 60.488 569.681 57.48C568.081 54.472 565.841 52.168 562.961 50.568C560.145 48.904 556.977 48.072 553.457 48.072C549.873 48.072 546.641 48.904 543.761 50.568C540.945 52.168 538.705 54.472 537.041 57.48C535.441 60.488 534.641 63.912 534.641 67.752C534.641 71.592 535.441 75.016 537.041 78.024C538.705 81.032 540.945 83.368 543.761 85.032C546.641 86.632 549.873 87.432 553.457 87.432Z" fill="white"/>
<path d="M411.186 62.945L411.186 62.945C410.453 62.2118 410.453 61.023 411.186 60.2899C413.887 57.5898 418.28 57.5895 420.98 60.29C421.713 61.0231 421.713 62.2117 420.98 62.9449L411.186 62.945ZM411.186 62.945C411.92 63.678 413.108 63.6781 413.842 62.945M411.186 62.945L413.842 62.945M432.02 62.945L432.02 62.945C431.287 62.2118 431.287 61.023 432.02 60.29C432.02 60.2899 432.02 60.2899 432.02 60.2899M432.02 62.945L441.601 60.5021C439.018 57.9191 434.815 57.9188 432.232 60.5021L432.02 60.2899M432.02 62.945C432.753 63.678 433.942 63.6781 434.675 62.945L434.463 62.7328L434.675 62.945C435.911 61.7091 437.923 61.709 439.159 62.945C439.525 63.3115 440.006 63.4949 440.486 63.4949C440.966 63.4949 441.447 63.3116 441.813 62.9449M432.02 62.945L441.813 62.9449M432.02 60.2899C434.72 57.5895 439.113 57.5898 441.813 60.2899C442.547 61.0231 442.547 62.2117 441.813 62.9449M432.02 60.2899L441.813 62.9449M426.5 40.7C433.658 40.7 440.389 43.4881 445.45 48.5496C450.512 53.6109 453.3 60.342 453.3 67.5C453.3 74.658 450.512 81.3891 445.45 86.4504C440.389 91.5119 433.658 94.3 426.5 94.3C419.342 94.3 412.611 91.5119 407.55 86.4504C402.488 81.3891 399.7 74.658 399.7 67.5C399.7 60.342 402.488 53.6109 407.55 48.5496C407.55 48.5496 407.55 48.5496 407.55 48.5496M426.5 40.7L400 67.5C400 74.5784 402.756 81.2332 407.762 86.2383C412.767 91.2435 419.422 94 426.5 94C433.578 94 440.233 91.2435 445.238 86.2383C450.244 81.2332 453 74.5784 453 67.5C453 60.4216 450.244 53.7668 445.238 48.7617C440.233 43.7565 433.578 41 426.5 41C419.422 41 412.767 43.7565 407.762 48.7617L407.55 48.5496M426.5 40.7C419.342 40.7 412.611 43.4881 407.55 48.5496M426.5 40.7L407.55 48.5496M413.842 62.945C415.078 61.7091 417.089 61.7092 418.325 62.945M413.842 62.945H418.325M418.325 62.945C418.691 63.3115 419.172 63.4949 419.652 63.4949M418.325 62.945L419.652 63.4949M419.652 63.4949C420.132 63.4949 420.613 63.3116 420.98 62.945L419.652 63.4949ZM426.5 90.5453C413.793 90.5453 403.455 80.2069 403.455 67.5C403.455 54.7931 413.793 44.4547 426.5 44.4547C439.207 44.4547 449.545 54.7931 449.545 67.5C449.545 80.2069 439.207 90.5453 426.5 90.5453ZM440.486 68.3567H412.514C411.477 68.3567 410.637 69.1974 410.637 70.2341C410.637 78.9814 417.753 86.0976 426.5 86.0976C435.248 86.0976 442.364 78.9814 442.364 70.2341C442.364 69.1972 441.523 68.3567 440.486 68.3567ZM426.5 82.3428C420.462 82.3428 415.441 77.9 414.537 72.1115H438.464C437.559 77.9 432.538 82.3428 426.5 82.3428Z" fill="white" stroke="white" stroke-width="0.6"/>
<path d="M488.5 40.7C495.658 40.7 502.389 43.4881 507.45 48.5496C512.512 53.6109 515.3 60.342 515.3 67.5C515.3 74.658 512.512 81.3891 507.45 86.4504C502.389 91.5119 495.658 94.3 488.5 94.3C481.342 94.3 474.611 91.5119 469.55 86.4504C464.488 81.3891 461.7 74.658 461.7 67.5C461.7 60.342 464.488 53.6109 469.55 48.5496C469.55 48.5496 469.55 48.5496 469.55 48.5496M488.5 40.7L469.762 48.7617M488.5 40.7C481.342 40.7 474.611 43.4881 469.55 48.5496M488.5 40.7L469.55 48.5496M469.55 48.5496L469.762 48.7617M469.762 48.7617C474.767 43.7565 481.422 41 488.5 41C495.578 41 502.233 43.7565 507.238 48.7617C512.244 53.7668 515 60.4216 515 67.5C515 74.5784 512.244 81.2332 507.238 86.2383C502.233 91.2435 495.578 94 488.5 94C481.422 94 474.767 91.2435 469.762 86.2383C464.756 81.2332 462 74.5784 462 67.5C462 60.4216 464.756 53.7668 469.762 48.7617ZM482.544 60.2313C482.544 58.5917 481.215 57.2625 479.575 57.2625C477.935 57.2625 476.606 58.5917 476.606 60.2313C476.606 61.8708 477.935 63.2 479.575 63.2C481.215 63.2 482.544 61.8708 482.544 60.2313ZM495.288 60.2313C495.288 61.8708 496.617 63.2 498.256 63.2C499.896 63.2 501.225 61.8708 501.225 60.2313C501.225 58.5917 499.896 57.2625 498.256 57.2625C496.617 57.2625 495.288 58.5917 495.288 60.2313ZM488.5 90.5453C475.793 90.5453 465.455 80.2069 465.455 67.5C465.455 54.7931 475.793 44.4547 488.5 44.4547C501.207 44.4547 511.545 54.7931 511.545 67.5C511.545 80.2069 501.207 90.5453 488.5 90.5453ZM482.018 78.5623C483.737 75.8122 486.192 74.5909 488.5 74.5909C490.808 74.5908 493.263 75.8121 494.982 78.5621C495.603 79.5559 496.912 79.858 497.906 79.2368C498.9 78.6157 499.202 77.3066 498.581 76.3129C496.159 72.4385 492.403 70.3471 488.5 70.3471C484.597 70.3471 480.841 72.4386 478.419 76.3131C477.798 77.3069 478.1 78.616 479.094 79.2371C480.088 79.8582 481.397 79.5561 482.018 78.5623Z" fill="white" stroke="white" stroke-width="0.6"/>
<path d="M7.968 25.8H23.52V93H7.968V25.8ZM69.804 40.584C76.204 40.584 81.356 42.504 85.26 46.344C89.228 50.184 91.212 55.88 91.212 63.432V93H76.236V65.736C76.236 61.64 75.34 58.6 73.548 56.616C71.756 54.568 69.164 53.544 65.772 53.544C61.996 53.544 58.988 54.728 56.748 57.096C54.508 59.4 53.388 62.856 53.388 67.464V93H38.412V41.352H52.716V47.4C54.7 45.224 57.164 43.56 60.108 42.408C63.052 41.192 66.284 40.584 69.804 40.584ZM122.163 93.768C117.875 93.768 113.683 93.256 109.587 92.232C105.491 91.144 102.227 89.8 99.795 88.2L104.787 77.448C107.091 78.92 109.875 80.136 113.139 81.096C116.403 81.992 119.603 82.44 122.739 82.44C129.075 82.44 132.243 80.872 132.243 77.736C132.243 76.264 131.379 75.208 129.651 74.568C127.923 73.928 125.267 73.384 121.683 72.936C117.459 72.296 113.971 71.56 111.219 70.728C108.467 69.896 106.067 68.424 104.019 66.312C102.035 64.2 101.043 61.192 101.043 57.288C101.043 54.024 101.971 51.144 103.827 48.648C105.747 46.088 108.499 44.104 112.083 42.696C115.731 41.288 120.019 40.584 124.947 40.584C128.595 40.584 132.211 41 135.795 41.832C139.443 42.6 142.451 43.688 144.819 45.096L139.827 55.752C135.283 53.192 130.323 51.912 124.947 51.912C121.747 51.912 119.347 52.36 117.747 53.256C116.147 54.152 115.347 55.304 115.347 56.712C115.347 58.312 116.211 59.432 117.939 60.072C119.667 60.712 122.419 61.32 126.195 61.896C130.419 62.6 133.875 63.368 136.563 64.2C139.251 64.968 141.587 66.408 143.571 68.52C145.555 70.632 146.547 73.576 146.547 77.352C146.547 80.552 145.587 83.4 143.667 85.896C141.747 88.392 138.931 90.344 135.219 91.752C131.571 93.096 127.219 93.768 122.163 93.768ZM155.787 41.352H170.763V93H155.787V41.352ZM163.275 34.152C160.523 34.152 158.283 33.352 156.555 31.752C154.827 30.152 153.963 28.168 153.963 25.8C153.963 23.432 154.827 21.448 156.555 19.848C158.283 18.248 160.523 17.448 163.275 17.448C166.027 17.448 168.267 18.216 169.995 19.752C171.723 21.288 172.587 23.208 172.587 25.512C172.587 28.008 171.723 30.088 169.995 31.752C168.267 33.352 166.027 34.152 163.275 34.152ZM237.27 21.768V93H222.966V87.048C219.254 91.528 213.878 93.768 206.838 93.768C201.974 93.768 197.558 92.68 193.59 90.504C189.686 88.328 186.614 85.224 184.374 81.192C182.134 77.16 181.014 72.488 181.014 67.176C181.014 61.864 182.134 57.192 184.374 53.16C186.614 49.128 189.686 46.024 193.59 43.848C197.558 41.672 201.974 40.584 206.838 40.584C213.43 40.584 218.582 42.664 222.294 46.824V21.768H237.27ZM209.43 81.48C213.206 81.48 216.342 80.2 218.838 77.64C221.334 75.016 222.582 71.528 222.582 67.176C222.582 62.824 221.334 59.368 218.838 56.808C216.342 54.184 213.206 52.872 209.43 52.872C205.59 52.872 202.422 54.184 199.926 56.808C197.43 59.368 196.182 62.824 196.182 67.176C196.182 71.528 197.43 75.016 199.926 77.64C202.422 80.2 205.59 81.48 209.43 81.48ZM301.723 67.368C301.723 67.56 301.627 68.904 301.435 71.4H262.363C263.067 74.6 264.731 77.128 267.355 78.984C269.979 80.84 273.243 81.768 277.147 81.768C279.835 81.768 282.203 81.384 284.251 80.616C286.363 79.784 288.315 78.504 290.107 76.776L298.075 85.416C293.211 90.984 286.107 93.768 276.763 93.768C270.939 93.768 265.787 92.648 261.307 90.408C256.827 88.104 253.371 84.936 250.939 80.904C248.507 76.872 247.291 72.296 247.291 67.176C247.291 62.12 248.475 57.576 250.843 53.544C253.275 49.448 256.571 46.28 260.731 44.04C264.955 41.736 269.659 40.584 274.843 40.584C279.899 40.584 284.475 41.672 288.571 43.848C292.667 46.024 295.867 49.16 298.171 53.256C300.539 57.288 301.723 61.992 301.723 67.368ZM274.939 51.912C271.547 51.912 268.699 52.872 266.395 54.792C264.091 56.712 262.683 59.336 262.171 62.664H287.611C287.099 59.4 285.691 56.808 283.387 54.888C281.083 52.904 278.267 51.912 274.939 51.912Z" fill="white"/>
</svg>
