<svg width="32" height="32" viewBox="0 0 32 32" fill="none" xmlns="http://www.w3.org/2000/svg">
<path d="M12.2227 11.6113C12.2227 10.7214 11.5012 10 10.6113 10C9.72142 10 9 10.7214 9 11.6113C9 12.5012 9.72142 13.2227 10.6113 13.2227C11.5012 13.2227 12.2227 12.5012 12.2227 11.6113Z" fill="url(#paint0_linear)"/>
<path d="M21.8906 13.2227C21.0007 13.2227 20.2793 12.5012 20.2793 11.6113C20.2793 10.7214 21.0007 10 21.8906 10C22.7805 10 23.502 10.7214 23.502 11.6113C23.502 12.5012 22.7805 13.2227 21.8906 13.2227Z" fill="url(#paint1_linear)"/>
<path d="M27.3137 4.68631C24.2918 1.66431 20.2738 0 16 0C11.7263 0 7.70825 1.66431 4.68631 4.68631C1.66425 7.70825 0 11.7263 0 16C0 20.2738 1.66425 24.2918 4.68631 27.3137C7.70825 30.3357 11.7263 32 16 32C20.2738 32 24.2918 30.3357 27.3137 27.3137C30.3358 24.2918 32 20.2738 32 16C32 11.7263 30.3358 7.70825 27.3137 4.68631ZM16 30.0953C8.22788 30.0953 1.90475 23.7721 1.90475 16C1.90475 8.22788 8.22788 1.90475 16 1.90475C23.7721 1.90475 30.0953 8.22788 30.0953 16C30.0953 23.7721 23.7721 30.0953 16 30.0953Z" fill="url(#paint2_linear)"/>
<path fill-rule="evenodd" clip-rule="evenodd" d="M16.0001 20.1001C14.5386 20.1002 13.0007 20.8746 11.9328 22.5831C11.6109 23.0983 10.9322 23.2549 10.417 22.9329C9.90188 22.611 9.74527 21.9323 10.0673 21.4171C11.4994 19.1257 13.7115 17.9002 16 17.9001C18.2886 17.9001 20.5007 19.1257 21.9328 21.417C22.2548 21.9322 22.0982 22.6108 21.5831 22.9328C21.0679 23.2548 20.3893 23.0982 20.0673 22.583C18.9994 20.8745 17.4615 20.1001 16.0001 20.1001Z" fill="url(#paint3_linear)"/>
<defs>
<linearGradient id="paint0_linear" x1="16.0003" y1="0" x2="16.0003" y2="32" gradientUnits="userSpaceOnUse">
<stop stop-color="#6AC0CE"/>
<stop offset="1" stop-color="#27426F"/>
</linearGradient>
<linearGradient id="paint1_linear" x1="16.0003" y1="0" x2="16.0003" y2="32" gradientUnits="userSpaceOnUse">
<stop stop-color="#6AC0CE"/>
<stop offset="1" stop-color="#27426F"/>
</linearGradient>
<linearGradient id="paint2_linear" x1="16.0003" y1="0" x2="16.0003" y2="32" gradientUnits="userSpaceOnUse">
<stop stop-color="#6AC0CE"/>
<stop offset="1" stop-color="#27426F"/>
</linearGradient>
<linearGradient id="paint3_linear" x1="16.0003" y1="0" x2="16.0003" y2="32" gradientUnits="userSpaceOnUse">
<stop stop-color="#6AC0CE"/>
<stop offset="1" stop-color="#27426F"/>
</linearGradient>
</defs>
</svg>
