<svg width="32" height="32" viewBox="0 0 32 32" fill="none" xmlns="http://www.w3.org/2000/svg">
<path d="M27.3137 4.68631C24.2918 1.66431 20.2738 0 16 0C11.7263 0 7.70825 1.66431 4.68631 4.68631C1.66425 7.70825 0 11.7263 0 16C0 20.2738 1.66425 24.2918 4.68631 27.3137C7.70825 30.3357 11.7263 32 16 32C20.2738 32 24.2918 30.3357 27.3137 27.3137C30.3358 24.2918 32 20.2738 32 16C32 11.7263 30.3358 7.70825 27.3137 4.68631ZM16 30.0953C8.22788 30.0953 1.90475 23.7721 1.90475 16C1.90475 8.22788 8.22788 1.90475 16 1.90475C23.7721 1.90475 30.0953 8.22788 30.0953 16C30.0953 23.7721 23.7721 30.0953 16 30.0953Z" fill="url(#paint0_linear)"/>
<path d="M12.5389 11.7748C10.9794 10.2152 8.44169 10.2153 6.88212 11.7748C6.51019 12.1467 6.51019 12.7498 6.88212 13.1217C7.25412 13.4936 7.85719 13.4936 8.22906 13.1217C9.04606 12.3048 10.3753 12.3048 11.1922 13.1217C11.3782 13.3077 11.6219 13.4007 11.8656 13.4007C12.1093 13.4007 12.3531 13.3077 12.5389 13.1217C12.9109 12.7498 12.9109 12.1468 12.5389 11.7748Z" fill="url(#paint1_linear)"/>
<path d="M25.1178 11.7748C23.5582 10.2153 21.0205 10.2152 19.4609 11.7748C19.089 12.1467 19.089 12.7498 19.4609 13.1217C19.8329 13.4936 20.436 13.4936 20.8079 13.1217C21.6248 12.3048 22.954 12.3047 23.771 13.1217C23.957 13.3077 24.2007 13.4007 24.4444 13.4007C24.6881 13.4007 24.9319 13.3077 25.1178 13.1217C25.4897 12.7498 25.4897 12.1468 25.1178 11.7748Z" fill="url(#paint2_linear)"/>
<path d="M24.4447 16.6984H7.55578C7.02978 16.6984 6.6034 17.1249 6.6034 17.6508C6.6034 22.8322 10.8188 27.0476 16.0002 27.0476C21.1816 27.0476 25.397 22.8322 25.397 17.6508C25.397 17.1248 24.9707 16.6984 24.4447 16.6984ZM16.0002 25.1429C12.1916 25.1429 9.03759 22.2864 8.5684 18.6032H23.4321C22.9628 22.2864 19.8088 25.1429 16.0002 25.1429Z" fill="url(#paint3_linear)"/>
<defs>
<linearGradient id="paint0_linear" x1="16.0003" y1="0" x2="16.0003" y2="37" gradientUnits="userSpaceOnUse">
<stop stop-color="#FEBA55"/>
<stop offset="1" stop-color="#DB528A"/>
</linearGradient>
<linearGradient id="paint1_linear" x1="16.0003" y1="0" x2="16.0003" y2="37" gradientUnits="userSpaceOnUse">
<stop stop-color="#FEBA55"/>
<stop offset="1" stop-color="#DB528A"/>
</linearGradient>
<linearGradient id="paint2_linear" x1="16.0003" y1="0" x2="16.0003" y2="37" gradientUnits="userSpaceOnUse">
<stop stop-color="#FEBA55"/>
<stop offset="1" stop-color="#DB528A"/>
</linearGradient>
<linearGradient id="paint3_linear" x1="16.0003" y1="0" x2="16.0003" y2="37" gradientUnits="userSpaceOnUse">
<stop stop-color="#FEBA55"/>
<stop offset="1" stop-color="#DB528A"/>
</linearGradient>
</defs>
</svg>
