<svg width="589" height="117" viewBox="0 0 589 117" fill="none" xmlns="http://www.w3.org/2000/svg">
<path d="M386.736 25.8V93H379.92V39.24L353.52 84.456H350.16L323.76 39.528V93H316.944V25.8H322.8L351.984 75.624L380.88 25.8H386.736ZM578.897 21.768V93H572.369V83.016C570.321 86.408 567.601 89 564.209 90.792C560.881 92.584 557.105 93.48 552.881 93.48C548.145 93.48 543.857 92.392 540.017 90.216C536.177 88.04 533.169 85 530.993 81.096C528.817 77.192 527.729 72.744 527.729 67.752C527.729 62.76 528.817 58.312 530.993 54.408C533.169 50.504 536.177 47.496 540.017 45.384C543.857 43.208 548.145 42.12 552.881 42.12C556.977 42.12 560.657 42.984 563.921 44.712C567.249 46.376 569.969 48.84 572.081 52.104V21.768H578.897ZM553.457 87.432C556.977 87.432 560.145 86.632 562.961 85.032C565.841 83.368 568.081 81.032 569.681 78.024C571.345 75.016 572.177 71.592 572.177 67.752C572.177 63.912 571.345 60.488 569.681 57.48C568.081 54.472 565.841 52.168 562.961 50.568C560.145 48.904 556.977 48.072 553.457 48.072C549.873 48.072 546.641 48.904 543.761 50.568C540.945 52.168 538.705 54.472 537.041 57.48C535.441 60.488 534.641 63.912 534.641 67.752C534.641 71.592 535.441 75.016 537.041 78.024C538.705 81.032 540.945 83.368 543.761 85.032C546.641 86.632 549.873 87.432 553.457 87.432Z" fill="#FFCF51"/>
<path d="M411.257 62.8743L411.257 62.8743C410.563 62.1801 410.563 61.0547 411.257 60.3607L411.257 62.8743ZM411.257 62.8743C411.951 63.5683 413.077 63.5683 413.771 62.8743M411.257 62.8743L413.771 62.8743M413.771 62.8743C415.046 61.5993 417.121 61.5994 418.396 62.8743M413.771 62.8743H418.396M418.396 62.8743C418.743 63.2213 419.198 63.3949 419.652 63.3949M418.396 62.8743L419.652 63.3949M419.652 63.3949C420.107 63.3949 420.562 63.2214 420.909 62.8743L419.652 63.3949ZM420.909 60.3607C418.248 57.6993 413.918 57.6995 411.257 60.3606L420.909 62.8742C421.603 62.1801 421.603 61.0548 420.909 60.3607ZM432.091 62.8743L432.091 62.8743C432.785 63.5683 433.91 63.5683 434.604 62.8743L434.463 62.7328L434.604 62.8743C435.879 61.5993 437.954 61.5992 439.229 62.8743C439.576 63.2213 440.031 63.3949 440.486 63.3949C440.94 63.3949 441.396 63.2214 441.743 62.8743C442.437 62.1801 442.437 61.0548 441.743 60.3607C439.082 57.6995 434.752 57.6993 432.091 60.3607C431.397 61.0547 431.397 62.1801 432.091 62.8743ZM445.38 48.6203C440.337 43.5776 433.631 40.8 426.5 40.8C419.369 40.8 412.663 43.5776 407.62 48.6203C402.577 53.6629 399.8 60.3686 399.8 67.5C399.8 74.6314 402.577 81.3371 407.62 86.3797C412.663 91.4224 419.369 94.2 426.5 94.2C433.631 94.2 440.337 91.4224 445.38 86.3797C450.423 81.3371 453.2 74.6314 453.2 67.5C453.2 60.3686 450.423 53.6629 445.38 48.6203ZM426.5 90.6453C413.738 90.6453 403.355 80.2621 403.355 67.5C403.355 54.7379 413.738 44.3547 426.5 44.3547C439.262 44.3547 449.645 54.7379 449.645 67.5C449.645 80.2621 439.262 90.6453 426.5 90.6453ZM440.486 68.4567H412.514C411.533 68.4567 410.737 69.2526 410.737 70.2341C410.737 78.9262 417.808 85.9976 426.5 85.9976C435.192 85.9976 442.264 78.9262 442.264 70.2341C442.264 69.2525 441.468 68.4567 440.486 68.4567ZM426.5 82.4428C420.372 82.4428 415.284 77.9042 414.421 72.0115H438.58C437.717 77.9042 432.628 82.4428 426.5 82.4428Z" fill="#FFCF51" stroke="#FFCF51" stroke-width="0.4"/>
<path d="M482.444 60.2313C482.444 58.6469 481.159 57.3625 479.575 57.3625C477.991 57.3625 476.706 58.6469 476.706 60.2313C476.706 61.8156 477.991 63.1 479.575 63.1C481.159 63.1 482.444 61.8156 482.444 60.2313ZM495.388 60.2313C495.388 61.8156 496.672 63.1 498.256 63.1C499.841 63.1 501.125 61.8156 501.125 60.2313C501.125 58.6469 499.841 57.3625 498.256 57.3625C496.672 57.3625 495.388 58.6469 495.388 60.2313ZM507.38 48.6203C502.337 43.5776 495.631 40.8 488.5 40.8C481.369 40.8 474.663 43.5776 469.62 48.6203C464.577 53.6629 461.8 60.3686 461.8 67.5C461.8 74.6314 464.577 81.3371 469.62 86.3797C474.663 91.4224 481.369 94.2 488.5 94.2C495.631 94.2 502.337 91.4224 507.38 86.3797C512.423 81.3371 515.2 74.6314 515.2 67.5C515.2 60.3686 512.423 53.6629 507.38 48.6203ZM488.5 90.6453C475.738 90.6453 465.355 80.2621 465.355 67.5C465.355 54.7379 475.738 44.3547 488.5 44.3547C501.262 44.3547 511.645 54.7379 511.645 67.5C511.645 80.2621 501.262 90.6453 488.5 90.6453ZM481.933 78.5093C483.669 75.7326 486.155 74.4909 488.5 74.4909C490.846 74.4908 493.331 75.7326 495.067 78.5091C495.659 79.456 496.906 79.7439 497.853 79.152C498.8 78.5602 499.088 77.3128 498.496 76.3659C496.091 72.518 492.366 70.4471 488.5 70.4471C484.634 70.4471 480.909 72.5181 478.504 76.3661C477.912 77.3131 478.2 78.5604 479.147 79.1523C480.094 79.7441 481.342 79.4562 481.933 78.5093Z" fill="#FFCF51" stroke="#FFCF51" stroke-width="0.4"/>
<path d="M7.968 25.8H23.52V93H7.968V25.8ZM69.804 40.584C76.204 40.584 81.356 42.504 85.26 46.344C89.228 50.184 91.212 55.88 91.212 63.432V93H76.236V65.736C76.236 61.64 75.34 58.6 73.548 56.616C71.756 54.568 69.164 53.544 65.772 53.544C61.996 53.544 58.988 54.728 56.748 57.096C54.508 59.4 53.388 62.856 53.388 67.464V93H38.412V41.352H52.716V47.4C54.7 45.224 57.164 43.56 60.108 42.408C63.052 41.192 66.284 40.584 69.804 40.584ZM122.163 93.768C117.875 93.768 113.683 93.256 109.587 92.232C105.491 91.144 102.227 89.8 99.795 88.2L104.787 77.448C107.091 78.92 109.875 80.136 113.139 81.096C116.403 81.992 119.603 82.44 122.739 82.44C129.075 82.44 132.243 80.872 132.243 77.736C132.243 76.264 131.379 75.208 129.651 74.568C127.923 73.928 125.267 73.384 121.683 72.936C117.459 72.296 113.971 71.56 111.219 70.728C108.467 69.896 106.067 68.424 104.019 66.312C102.035 64.2 101.043 61.192 101.043 57.288C101.043 54.024 101.971 51.144 103.827 48.648C105.747 46.088 108.499 44.104 112.083 42.696C115.731 41.288 120.019 40.584 124.947 40.584C128.595 40.584 132.211 41 135.795 41.832C139.443 42.6 142.451 43.688 144.819 45.096L139.827 55.752C135.283 53.192 130.323 51.912 124.947 51.912C121.747 51.912 119.347 52.36 117.747 53.256C116.147 54.152 115.347 55.304 115.347 56.712C115.347 58.312 116.211 59.432 117.939 60.072C119.667 60.712 122.419 61.32 126.195 61.896C130.419 62.6 133.875 63.368 136.563 64.2C139.251 64.968 141.587 66.408 143.571 68.52C145.555 70.632 146.547 73.576 146.547 77.352C146.547 80.552 145.587 83.4 143.667 85.896C141.747 88.392 138.931 90.344 135.219 91.752C131.571 93.096 127.219 93.768 122.163 93.768ZM155.787 41.352H170.763V93H155.787V41.352ZM163.275 34.152C160.523 34.152 158.283 33.352 156.555 31.752C154.827 30.152 153.963 28.168 153.963 25.8C153.963 23.432 154.827 21.448 156.555 19.848C158.283 18.248 160.523 17.448 163.275 17.448C166.027 17.448 168.267 18.216 169.995 19.752C171.723 21.288 172.587 23.208 172.587 25.512C172.587 28.008 171.723 30.088 169.995 31.752C168.267 33.352 166.027 34.152 163.275 34.152ZM237.27 21.768V93H222.966V87.048C219.254 91.528 213.878 93.768 206.838 93.768C201.974 93.768 197.558 92.68 193.59 90.504C189.686 88.328 186.614 85.224 184.374 81.192C182.134 77.16 181.014 72.488 181.014 67.176C181.014 61.864 182.134 57.192 184.374 53.16C186.614 49.128 189.686 46.024 193.59 43.848C197.558 41.672 201.974 40.584 206.838 40.584C213.43 40.584 218.582 42.664 222.294 46.824V21.768H237.27ZM209.43 81.48C213.206 81.48 216.342 80.2 218.838 77.64C221.334 75.016 222.582 71.528 222.582 67.176C222.582 62.824 221.334 59.368 218.838 56.808C216.342 54.184 213.206 52.872 209.43 52.872C205.59 52.872 202.422 54.184 199.926 56.808C197.43 59.368 196.182 62.824 196.182 67.176C196.182 71.528 197.43 75.016 199.926 77.64C202.422 80.2 205.59 81.48 209.43 81.48ZM301.723 67.368C301.723 67.56 301.627 68.904 301.435 71.4H262.363C263.067 74.6 264.731 77.128 267.355 78.984C269.979 80.84 273.243 81.768 277.147 81.768C279.835 81.768 282.203 81.384 284.251 80.616C286.363 79.784 288.315 78.504 290.107 76.776L298.075 85.416C293.211 90.984 286.107 93.768 276.763 93.768C270.939 93.768 265.787 92.648 261.307 90.408C256.827 88.104 253.371 84.936 250.939 80.904C248.507 76.872 247.291 72.296 247.291 67.176C247.291 62.12 248.475 57.576 250.843 53.544C253.275 49.448 256.571 46.28 260.731 44.04C264.955 41.736 269.659 40.584 274.843 40.584C279.899 40.584 284.475 41.672 288.571 43.848C292.667 46.024 295.867 49.16 298.171 53.256C300.539 57.288 301.723 61.992 301.723 67.368ZM274.939 51.912C271.547 51.912 268.699 52.872 266.395 54.792C264.091 56.712 262.683 59.336 262.171 62.664H287.611C287.099 59.4 285.691 56.808 283.387 54.888C281.083 52.904 278.267 51.912 274.939 51.912Z" fill="#AAC3BD"/>
</svg>
